# xmcd CD database file
#
# Track frame offsets:
#	183
#	23828
#	42500
#	56150
#	73653
#	94410
#	114233
#	149273
#	166228
#	194223
#
# Disc length: 2795 seconds
#
# Revision: 6
# Processed by: cddbd v1.4PL0 Copyright (c) Steve Scherf et al.
# Submitted via: CDex 1.50beta10
#
DISCID=950ae90a
DTITLE=Ticha Dohoda - Unplug GAG
DYEAR=1993
DGENRE=Blues
TTITLE0=Kotva and  Kriz
TTITLE1=Cas vsechno zahoji
TTITLE2=Peklo a raj
TTITLE3=Marioneta
TTITLE4=Cizi pohled
TTITLE5=Vitr
TTITLE6=Gloria
TTITLE7=Woodstock
TTITLE8=All Tomorrows Parties
TTITLE9=I'm free
EXTD=YEAR: 1993
EXTT0=
EXTT1=
EXTT2=
EXTT3=
EXTT4=
EXTT5=
EXTT6=
EXTT7=
EXTT8=
EXTT9=
PLAYORDER=
